<svg width="14" height="14" viewBox="0 0 14 14" fill="none" xmlns="http://www.w3.org/2000/svg">
<path d="M1.71875 5.09961C1.71875 3.09614 1.71875 2.09441 2.34115 1.47201C2.96355 0.849609 3.96528 0.849609 5.96875 0.849609H8.80208C10.8056 0.849609 11.8073 0.849609 12.4297 1.47201C13.0521 2.09441 13.0521 3.09614 13.0521 5.09961V9.93583C13.0521 11.8365 13.0521 12.7868 12.454 13.0775C11.856 13.3682 11.1087 12.781 9.61421 11.6068L9.13591 11.2309C8.29556 10.5707 7.87539 10.2405 7.38542 10.2405C6.89544 10.2405 6.47527 10.5707 5.63492 11.231L5.15662 11.6068C3.6621 12.781 2.91483 13.3682 2.31679 13.0775C1.71875 12.7868 1.71875 11.8365 1.71875 9.93583V5.09961Z" stroke="#242424" stroke-width="1.5"/>
</svg>
