<svg width="19" height="19" viewBox="0 0 19 19" fill="none" xmlns="http://www.w3.org/2000/svg">
<path d="M15.4368 6.5L15.9671 7.03033L16.4974 6.5L15.9671 5.96967L15.4368 6.5ZM11.6868 15.5C12.101 15.5 12.4368 15.1642 12.4368 14.75C12.4368 14.3358 12.101 14 11.6868 14L11.6868 15.5ZM12.2171 10.7803L15.9671 7.03033L14.9064 5.96967L11.1564 9.71967L12.2171 10.7803ZM15.9671 5.96967L12.2171 2.21967L11.1564 3.28033L14.9064 7.03033L15.9671 5.96967ZM15.4368 5.75L7.56177 5.75L7.56177 7.25L15.4368 7.25L15.4368 5.75ZM7.56177 15.5L11.6868 15.5L11.6868 14L7.56177 14L7.56177 15.5ZM2.68677 10.625C2.68677 13.3174 4.86938 15.5 7.56177 15.5L7.56177 14C5.69781 14 4.18677 12.489 4.18677 10.625L2.68677 10.625ZM7.56177 5.75C4.86938 5.75 2.68677 7.93261 2.68677 10.625L4.18677 10.625C4.18677 8.76104 5.69781 7.25 7.56177 7.25L7.56177 5.75Z" fill="#242424"/>
</svg>
