<svg width="22" height="22" viewBox="0 0 22 22" fill="none" xmlns="http://www.w3.org/2000/svg">
<path d="M19.9883 9.20469H19.2499V9.16665H10.9999V12.8333H16.1805C15.4247 14.9678 13.3938 16.5 10.9999 16.5C7.96254 16.5 5.49992 14.0374 5.49992 11C5.49992 7.9626 7.96254 5.49998 10.9999 5.49998C12.402 5.49998 13.6775 6.0289 14.6487 6.89285L17.2415 4.30006C15.6043 2.77427 13.4144 1.83331 10.9999 1.83331C5.93763 1.83331 1.83325 5.93769 1.83325 11C1.83325 16.0623 5.93763 20.1666 10.9999 20.1666C16.0622 20.1666 20.1666 16.0623 20.1666 11C20.1666 10.3854 20.1033 9.7854 19.9883 9.20469Z" fill="#FFC107"/>
<path d="M2.89014 6.73335L5.90184 8.94206C6.71676 6.92448 8.69035 5.49998 10.9999 5.49998C12.4019 5.49998 13.6775 6.0289 14.6487 6.89285L17.2415 4.30006C15.6043 2.77427 13.4144 1.83331 10.9999 1.83331C7.47897 1.83331 4.42555 3.8211 2.89014 6.73335Z" fill="#FF3D00"/>
<path d="M11 20.1667C13.3677 20.1667 15.5191 19.2606 17.1458 17.787L14.3087 15.3863C13.3574 16.1097 12.1951 16.501 11 16.5C8.61573 16.5 6.59127 14.9797 5.82861 12.8581L2.83936 15.1612C4.35644 18.1298 7.43736 20.1667 11 20.1667Z" fill="#4CAF50"/>
<path d="M19.9884 9.20473H19.25V9.16669H11V12.8334H16.1805C15.819 13.8492 15.1678 14.7369 14.3073 15.3867L14.3087 15.3858L17.1458 17.7866C16.945 17.969 20.1667 15.5834 20.1667 11C20.1667 10.3854 20.1034 9.78544 19.9884 9.20473Z" fill="#1976D2"/>
</svg>
