<svg width="18" height="20" viewBox="0 0 18 20" fill="none" xmlns="http://www.w3.org/2000/svg">
<path fill-rule="evenodd" clip-rule="evenodd" d="M0.352879 6.25313C0 6.97419 0 7.7945 0 9.43512V14.5589C0 16.8374 0 17.9766 0.753154 18.6844C1.46833 19.3566 2.59741 19.3905 4.78527 19.3922V13.3509C4.78527 12.0737 5.868 11.1426 7.07099 11.1426H10.9281C12.1311 11.1426 13.2138 12.0737 13.2138 13.3509V19.3922C15.4023 19.3905 16.5316 19.3567 17.2468 18.6844C18 17.9766 18 16.8374 18 14.5589V9.43512C18 7.7945 18 6.97419 17.6471 6.25313C17.2942 5.53207 16.6315 4.99821 15.3061 3.93051L14.0204 2.8948C11.6247 0.964932 10.4268 0 9 0C7.57315 0 6.3753 0.964932 3.97961 2.8948L2.6939 3.93051C1.36847 4.99821 0.705758 5.53207 0.352879 6.25313ZM11.2138 19.3923V13.3509C11.2138 13.3142 11.1998 13.2697 11.1524 13.2252C11.104 13.1797 11.027 13.1426 10.9281 13.1426H7.07099C6.9721 13.1426 6.89513 13.1797 6.84669 13.2252C6.79931 13.2697 6.78527 13.3142 6.78527 13.3509V19.3923H11.2138Z" fill="#4C4E4D"/>
</svg>
