<svg width="20" height="22" viewBox="0 0 20 22" fill="none" xmlns="http://www.w3.org/2000/svg">
<path d="M1 10.434C1 8.79356 1 7.97335 1.35288 7.25237C1.70576 6.5314 2.36847 5.99761 3.6939 4.93004L4.97961 3.89445C7.3753 1.96482 8.57315 1 10 1C11.4268 1 12.6247 1.96482 15.0204 3.89445L16.3061 4.93004C17.6315 5.99761 18.2942 6.5314 18.6471 7.25237C19 7.97335 19 8.79356 19 10.434V15.5572C19 17.8354 19 18.9744 18.2468 19.6822C17.4937 20.3899 16.2815 20.3899 13.8571 20.3899H6.14286C3.71849 20.3899 2.50631 20.3899 1.75315 19.6822C1 18.9744 1 17.8354 1 15.5572V10.434Z" stroke="#4C4E4D" stroke-width="2"/>
<path d="M13.2147 20.39V14.1409C13.2147 13.5886 12.767 13.1409 12.2147 13.1409H7.78613C7.23385 13.1409 6.78613 13.5886 6.78613 14.1409V20.39" stroke="#4C4E4D" stroke-width="2" stroke-linecap="round" stroke-linejoin="round"/>
</svg>
