<svg width="17" height="17" viewBox="0 0 17 17" fill="none" xmlns="http://www.w3.org/2000/svg">
<path fill-rule="evenodd" clip-rule="evenodd" d="M0.00173786 5H16C16.5523 5 17 5.44772 17 6C17 6.55228 16.5523 7 16 7H0V11C0 13.8284 0 15.2426 0.87868 16.1213C1.75736 17 3.17157 17 6 17H11C13.8284 17 15.2426 17 16.1213 16.1213C17 15.2426 17 13.8284 17 11V6C17 3.17157 17 1.75736 16.1213 0.87868C15.2426 0 13.8284 0 11 0H6C3.17157 0 1.75736 0 0.87868 0.87868C0.110296 1.64706 0.0138448 2.82497 0.00173786 5Z" fill="#4C4E4D"/>
</svg>
