<svg width="18" height="19" viewBox="0 0 18 19" fill="none" xmlns="http://www.w3.org/2000/svg">
<path d="M3.92173 5.56684C4.19793 2.97007 6.38865 1 9.00006 1V1C11.6115 1 13.8022 2.97006 14.0784 5.56683L14.3368 7.99624C14.4518 9.07735 14.7908 10.1226 15.3323 11.0654L15.8721 12.0052C16.34 12.8199 16.574 13.2272 16.531 13.5611C16.4967 13.8268 16.3573 14.0677 16.1439 14.2297C15.8758 14.4333 15.4061 14.4333 14.4666 14.4333H3.53352C2.59406 14.4333 2.12432 14.4333 1.85621 14.2297C1.64283 14.0677 1.50339 13.8268 1.46916 13.5611C1.42615 13.2272 1.6601 12.8199 2.12801 12.0052L2.66781 11.0654C3.20929 10.1226 3.54834 9.07735 3.66333 7.99625L3.92173 5.56684Z" stroke="#4C4E4D" stroke-width="2"/>
<path d="M5.89961 14.4332C5.89961 14.8403 5.97979 15.2434 6.13558 15.6195C6.29137 15.9956 6.51972 16.3374 6.80758 16.6252C7.09544 16.9131 7.43718 17.1414 7.81329 17.2972C8.1894 17.453 8.59251 17.5332 8.99961 17.5332C9.40671 17.5332 9.80982 17.453 10.1859 17.2972C10.562 17.1414 10.9038 16.9131 11.1916 16.6252C11.4795 16.3374 11.7078 15.9956 11.8636 15.6195C12.0194 15.2434 12.0996 14.8403 12.0996 14.4332" stroke="#4C4E4D" stroke-width="2" stroke-linecap="round"/>
</svg>
