<svg width="20" height="20" viewBox="0 0 20 20" fill="none" xmlns="http://www.w3.org/2000/svg">
<path d="M11.888 2.20328H12.888V2.1534L12.883 2.10377L11.888 2.20328ZM11.8031 1.65995L12.7435 1.31991L12.7435 1.3199L11.8031 1.65995ZM11.888 2.20329H10.888V2.25317L10.893 2.3028L11.888 2.20329ZM12.0503 3.17328L11.1552 3.61918L11.1552 3.61919L12.0503 3.17328ZM13.263 3.67559L12.9454 2.72737L12.9454 2.72737L13.263 3.67559ZM14.0636 3.10452L14.6969 3.87848L14.7097 3.868L14.7221 3.8571L14.0636 3.10452ZM14.0636 3.10452L13.4636 2.30452L13.4335 2.32713L13.4051 2.35194L14.0636 3.10452ZM14.0636 3.10451L14.6636 3.90451L14.6805 3.89184L14.6969 3.87847L14.0636 3.10451ZM14.5078 2.78043L14.9323 3.68583L14.9323 3.68583L14.5078 2.78043ZM15.4448 2.82717L14.9323 3.68583L14.9323 3.68583L15.4448 2.82717ZM15.8545 3.19383L15.1474 3.90093L15.1628 3.9163L15.1788 3.93098L15.8545 3.19383ZM15.8545 3.19384L16.5616 2.48673L16.5463 2.47137L16.5303 2.45668L15.8545 3.19384ZM16.6442 3.98353L15.9371 4.69063L15.9371 4.69063L16.6442 3.98353ZM17.0109 4.3932L16.1522 4.90574L16.1522 4.90574L17.0109 4.3932ZM17.0576 5.3303L16.1522 4.90574L16.1522 4.90574L17.0576 5.3303ZM16.7335 5.77441L15.9596 5.14118L15.9286 5.17902L15.9015 5.21971L16.7335 5.77441ZM16.7335 5.77442L17.5075 6.40766L17.5385 6.36981L17.5656 6.32912L16.7335 5.77442ZM16.1625 6.57503L15.2143 6.25741L15.2143 6.25741L16.1625 6.57503ZM16.6648 7.78773L17.1107 6.89265L17.1107 6.89265L16.6648 7.78773ZM17.6348 7.95004L17.5353 8.94508L17.5353 8.94508L17.6348 7.95004ZM18.1781 8.03495L17.838 8.97536L17.838 8.97536L18.1781 8.03495ZM18.8076 8.73058L17.838 8.97536L17.838 8.97536L18.8076 8.73058ZM18.8076 10.9454L17.838 10.7006L17.838 10.7006L18.8076 10.9454ZM18.1781 11.641L18.5181 12.5814L18.5181 12.5814L18.1781 11.641ZM17.6347 11.7259L17.7342 12.7209L17.7342 12.7209L17.6347 11.7259ZM16.6648 11.8882L16.219 10.993L16.219 10.993L16.6648 11.8882ZM16.1625 13.101L17.1107 12.7833L17.1107 12.7833L16.1625 13.101ZM16.7334 13.9014L15.9594 14.5346L15.991 14.5732L16.0263 14.6085L16.7334 13.9014ZM16.7334 13.9014L17.5074 13.2681L17.4758 13.2295L17.4405 13.1943L16.7334 13.9014ZM17.0574 14.3454L16.152 14.77L16.152 14.77L17.0574 14.3454ZM17.0106 15.2826L16.152 14.77L16.152 14.77L17.0106 15.2826ZM15.4447 16.8485L14.9321 15.9899L14.9321 15.9899L15.4447 16.8485ZM14.5075 16.8953L14.9321 15.9899L14.9321 15.9899L14.5075 16.8953ZM14.0635 16.5713L14.6967 15.7973L14.6967 15.7973L14.0635 16.5713ZM13.2631 16.0003L13.5808 15.0521L13.5808 15.0521L13.2631 16.0003ZM12.0503 16.5027L12.9454 16.9485L12.9454 16.9485L12.0503 16.5027ZM11.888 17.4726L12.883 17.5721L12.883 17.5721L11.888 17.4726ZM11.8031 18.016L12.7435 18.356L12.7435 18.356L11.8031 18.016ZM11.1075 18.6455L10.8627 17.6759L10.8627 17.6759L11.1075 18.6455ZM8.8927 18.6455L8.64792 19.6151L8.64793 19.6151L8.8927 18.6455ZM8.19705 18.016L7.25664 18.356L7.25664 18.356L8.19705 18.016ZM8.11216 17.4727L7.11561 17.5558L7.1163 17.564L7.11712 17.5722L8.11216 17.4727ZM8.11216 17.4727L9.1087 17.3897L9.10802 17.3814L9.10719 17.3732L8.11216 17.4727ZM7.94983 16.5027L8.84489 16.0567L8.84489 16.0567L7.94983 16.5027ZM6.73718 16.0004L7.05476 16.9486L7.05476 16.9486L6.73718 16.0004ZM5.93644 16.5715L5.3032 15.7976L5.2646 15.8292L5.22933 15.8644L5.93644 16.5715ZM5.93643 16.5715L6.58723 17.3308L6.61638 17.3058L6.64354 17.2787L5.93643 16.5715ZM5.93642 16.5716L6.56966 17.3455L6.57852 17.3383L6.58722 17.3308L5.93642 16.5716ZM5.49216 16.8957L5.06767 15.9903L5.06767 15.9903L5.49216 16.8957ZM4.55518 16.849L4.04269 17.7077L4.0427 17.7077L4.55518 16.849ZM4.1454 16.4822L4.8525 15.7751L4.8525 15.7751L4.1454 16.4822ZM3.35582 15.6927L2.64871 16.3998L2.64871 16.3998L3.35582 15.6927ZM2.98906 15.2829L2.13036 15.7953L2.13036 15.7953L2.98906 15.2829ZM2.94233 14.3459L3.84776 14.7704L3.84776 14.7704L2.94233 14.3459ZM3.26651 13.9016L4.04047 14.5349L4.04047 14.5349L3.26651 13.9016ZM3.83769 13.1009L4.78592 13.4184L4.78592 13.4184L3.83769 13.1009ZM3.3354 11.8882L2.88945 12.7833L2.88945 12.7833L3.3354 11.8882ZM2.36536 11.7259L2.46486 10.7308L2.41523 10.7259H2.36536V11.7259ZM2.36535 11.7259L2.26584 12.7209L2.31547 12.7259H2.36535V11.7259ZM1.82207 11.641L1.48203 12.5814L1.48203 12.5814L1.82207 11.641ZM1.19253 10.9453L0.222952 11.1901L0.222952 11.1901L1.19253 10.9453ZM1.19253 8.73059L2.16211 8.97536L2.16211 8.97536L1.19253 8.73059ZM1.82208 8.03494L2.16211 8.97536L2.16211 8.97536L1.82208 8.03494ZM2.36532 7.95005L2.46483 8.94512L2.4728 8.94426L2.36532 7.95005ZM2.36534 7.95005L2.26583 6.95498L2.25785 6.95584L2.36534 7.95005ZM3.33535 7.78772L3.78128 8.68278L3.78128 8.68278L3.33535 7.78772ZM3.83765 6.57507L2.88942 6.89265L2.88942 6.89265L3.83765 6.57507ZM3.26641 5.77423L4.04036 5.14099L4.04036 5.14099L3.26641 5.77423ZM2.9421 5.32977L2.03664 5.7542L2.03664 5.7542L2.9421 5.32977ZM2.98883 4.39292L2.13009 3.8805L2.13009 3.8805L2.98883 4.39292ZM3.35568 3.983L4.06279 4.69011L4.06279 4.69011L3.35568 3.983ZM4.14514 3.19355L3.43803 2.48644L3.43803 2.48644L4.14514 3.19355ZM4.55504 2.8267L4.04262 1.96797L4.04262 1.96797L4.55504 2.8267ZM5.4919 2.77997L5.91634 1.87452L5.91634 1.87452L5.4919 2.77997ZM5.93635 3.10428L5.30311 3.87823L5.30311 3.87823L5.93635 3.10428ZM6.73717 3.67551L6.41957 4.62373L6.41957 4.62373L6.73717 3.67551ZM7.94984 3.1732L7.05477 2.72728L7.05476 2.72728L7.94984 3.1732ZM8.11216 2.20322L7.11792 2.09573L7.11712 2.10371L8.11216 2.20322ZM8.11216 2.2032L9.1064 2.31069L9.1072 2.30271L8.11216 2.2032ZM8.19705 1.65997L9.13747 2L9.13747 2L8.19705 1.65997ZM8.8927 1.03042L8.64794 0.0608339L8.64794 0.060834L8.8927 1.03042ZM11.1075 1.03042L11.3523 0.0608464L11.3523 0.0608463L11.1075 1.03042ZM12.883 2.10377C12.8604 1.87795 12.8385 1.58273 12.7435 1.31991L10.8627 2C10.8513 1.96862 10.8534 1.95897 10.861 2.01195C10.8695 2.07084 10.8779 2.15201 10.893 2.30278L12.883 2.10377ZM12.888 2.20329V2.20328H10.888V2.20329H12.888ZM12.9454 2.72738C12.9763 2.78936 12.9671 2.80775 12.9472 2.67727C12.9284 2.55422 12.911 2.38338 12.883 2.10378L10.893 2.3028C10.9187 2.5605 10.9416 2.79263 10.9701 2.97924C10.9975 3.15842 11.0426 3.39316 11.1552 3.61918L12.9454 2.72738ZM12.9454 2.72737L12.9454 2.72737L11.1552 3.61919C11.6 4.51205 12.6347 4.94064 13.5806 4.62381L12.9454 2.72737ZM13.4304 2.33056C13.2129 2.50848 13.0798 2.61697 12.9795 2.69068C12.8732 2.76884 12.8797 2.74937 12.9454 2.72737L13.5806 4.62381C13.8201 4.54361 14.018 4.40956 14.164 4.30221C14.3161 4.19041 14.4964 4.04247 14.6969 3.87848L13.4304 2.33056ZM13.4051 2.35194L13.4051 2.35194L14.7221 3.8571L14.7221 3.85709L13.4051 2.35194ZM13.4636 2.30451L13.4636 2.30452L14.6636 3.90452L14.6636 3.90451L13.4636 2.30451ZM14.0832 1.87502C13.8302 1.99366 13.606 2.18688 13.4304 2.33055L14.6969 3.87847C14.8141 3.78254 14.8774 3.73106 14.925 3.69545C14.9679 3.66341 14.9625 3.67167 14.9323 3.68583L14.0832 1.87502ZM15.9574 1.9685C15.387 1.62801 14.6847 1.59299 14.0832 1.87503L14.9323 3.68583L14.9323 3.68583L15.9574 1.9685ZM16.5616 2.48673C16.4012 2.32629 16.1973 2.11172 15.9574 1.9685L14.9323 3.68583C14.9037 3.66874 14.8991 3.65998 14.9386 3.69612C14.9825 3.7363 15.0403 3.79382 15.1474 3.90093L16.5616 2.48673ZM16.5303 2.45668L16.5302 2.45668L15.1788 3.93098L15.1788 3.93099L16.5303 2.45668ZM17.3513 3.27642L16.5616 2.48673L15.1474 3.90095L15.9371 4.69063L17.3513 3.27642ZM17.8695 3.88066C17.7263 3.64072 17.5118 3.43686 17.3513 3.27642L15.9371 4.69063C16.0442 4.79775 16.1018 4.85559 16.1419 4.89946C16.1781 4.93893 16.1693 4.93438 16.1522 4.90574L17.8695 3.88066ZM17.963 5.75485C18.2451 5.15337 18.21 4.45109 17.8695 3.88066L16.1522 4.90574L16.1522 4.90574L17.963 5.75485ZM17.5075 6.40765C17.6512 6.23206 17.8444 6.00785 17.963 5.75485L16.1522 4.90574C16.1664 4.87554 16.1746 4.87015 16.1426 4.91301C16.107 4.96066 16.0555 5.02393 15.9596 5.14118L17.5075 6.40765ZM17.5656 6.32912L17.5656 6.32911L15.9015 5.21971L15.9015 5.21972L17.5656 6.32912ZM17.1107 6.89265C17.0887 6.95831 17.0692 6.96484 17.1474 6.8585C17.2211 6.75822 17.3296 6.62512 17.5075 6.40766L15.9596 5.14118C15.7956 5.34162 15.6477 5.52193 15.5359 5.67403C15.4285 5.82008 15.2945 6.01797 15.2143 6.25741L17.1107 6.89265ZM17.1107 6.89265L17.1107 6.89265L15.2143 6.25741C14.8974 7.20328 15.326 8.23801 16.2189 8.68281L17.1107 6.89265ZM17.7343 6.95501C17.4547 6.92705 17.2838 6.90964 17.1608 6.89085C17.0303 6.87092 17.0487 6.86177 17.1107 6.89265L16.2189 8.68281C16.4449 8.79541 16.6796 8.84055 16.8588 8.86792C17.0454 8.89642 17.2776 8.91931 17.5353 8.94508L17.7343 6.95501ZM18.5181 7.09454C18.2553 6.9995 17.9601 6.97759 17.7343 6.95501L17.5353 8.94508C17.686 8.96016 17.7672 8.9685 17.8261 8.97701C17.8791 8.98468 17.8694 8.9867 17.838 8.97536L18.5181 7.09454ZM19.7772 8.4858C19.6146 7.84173 19.1428 7.32042 18.5181 7.09454L17.838 8.97536L17.838 8.97536L19.7772 8.4858ZM19.838 9.27961C19.838 9.05269 19.8456 8.75677 19.7772 8.48579L17.838 8.97536C17.8299 8.94301 17.8328 8.93361 17.8352 8.98708C17.8378 9.04652 17.838 9.1281 17.838 9.27961H19.838ZM19.838 10.3963V9.27961H17.838V10.3963H19.838ZM19.7772 11.1902C19.8456 10.9192 19.838 10.6232 19.838 10.3963H17.838C17.838 10.5478 17.8378 10.6294 17.8352 10.6889C17.8328 10.7423 17.8299 10.7329 17.838 10.7006L19.7772 11.1902ZM18.5181 12.5814C19.1428 12.3555 19.6146 11.8342 19.7772 11.1901L17.838 10.7006L17.838 10.7006L18.5181 12.5814ZM17.7342 12.7209C17.96 12.6983 18.2553 12.6764 18.5181 12.5814L17.838 10.7006C17.8694 10.6892 17.8791 10.6912 17.8261 10.6989C17.7672 10.7074 17.686 10.7158 17.5352 10.7309L17.7342 12.7209ZM17.1107 12.7833C17.0487 12.8142 17.0303 12.805 17.1608 12.7851C17.2838 12.7663 17.4546 12.7489 17.7342 12.7209L17.5352 10.7309C17.2775 10.7566 17.0454 10.7795 16.8589 10.808C16.6797 10.8354 16.445 10.8805 16.219 10.993L17.1107 12.7833ZM17.1107 12.7833L17.1107 12.7833L16.219 10.993C15.326 11.4378 14.8973 12.4727 15.2143 13.4187L17.1107 12.7833ZM17.5073 13.2681C17.3295 13.0507 17.221 12.9177 17.1473 12.8174C17.0692 12.7111 17.0887 12.7176 17.1107 12.7833L15.2143 13.4187C15.2945 13.6581 15.4285 13.8559 15.5358 14.0019C15.6476 14.154 15.7955 14.3342 15.9594 14.5346L17.5073 13.2681ZM17.4405 13.1943L17.4405 13.1943L16.0263 14.6085L16.0263 14.6085L17.4405 13.1943ZM17.9628 13.9208C17.8441 13.6678 17.651 13.4437 17.5074 13.2681L15.9594 14.5346C16.0553 14.6518 16.1068 14.7151 16.1424 14.7627C16.1744 14.8056 16.1662 14.8002 16.152 14.77L17.9628 13.9208ZM17.8693 15.7952C18.2099 15.2247 18.2449 14.5223 17.9628 13.9207L16.152 14.77L16.152 14.77L17.8693 15.7952ZM17.3512 16.3992C17.5116 16.2389 17.7261 16.035 17.8693 15.7952L16.152 14.77C16.1691 14.7414 16.1779 14.7368 16.1417 14.7763C16.1016 14.8201 16.0441 14.8779 15.937 14.985L17.3512 16.3992ZM16.5614 17.1891L17.3512 16.3992L15.937 14.985L15.1472 15.7748L16.5614 17.1891ZM15.9573 17.7072C16.1972 17.564 16.401 17.3495 16.5614 17.1891L15.1472 15.7748C15.0401 15.8819 14.9823 15.9394 14.9384 15.9796C14.8989 16.0157 14.9035 16.007 14.9321 15.9899L15.9573 17.7072ZM14.0829 17.8006C14.6844 18.0828 15.3868 18.0477 15.9573 17.7072L14.9321 15.9899L14.9321 15.9899L14.0829 17.8006ZM13.4303 17.3452C13.6058 17.4889 13.83 17.682 14.0829 17.8006L14.9321 15.9899C14.9623 16.0041 14.9677 16.0123 14.9248 15.9803C14.8772 15.9447 14.8139 15.8932 14.6967 15.7973L13.4303 17.3452ZM12.9454 16.9485C12.8798 16.9265 12.8732 16.9071 12.9795 16.9852C13.0798 17.0589 13.2129 17.1674 13.4303 17.3452L14.6967 15.7973C14.4964 15.6334 14.3161 15.4855 14.164 15.3737C14.018 15.2664 13.8202 15.1323 13.5808 15.0521L12.9454 16.9485ZM12.9454 16.9485L12.9454 16.9485L13.5808 15.0521C12.6348 14.7352 11.5999 15.1638 11.1551 16.0569L12.9454 16.9485ZM12.883 17.5721C12.911 17.2925 12.9284 17.1217 12.9472 16.9986C12.9671 16.8681 12.9763 16.8865 12.9454 16.9485L11.1551 16.0569C11.0426 16.2829 10.9975 16.5176 10.9701 16.6967C10.9416 16.8833 10.9187 17.1154 10.893 17.3731L12.883 17.5721ZM12.7435 18.356C12.8385 18.0932 12.8605 17.7979 12.883 17.5721L10.893 17.3731C10.8779 17.5239 10.8695 17.6051 10.861 17.664C10.8534 17.717 10.8513 17.7073 10.8627 17.6759L12.7435 18.356ZM11.3523 19.6151C11.9963 19.4525 12.5176 18.9807 12.7435 18.356L10.8627 17.6759L10.8627 17.6759L11.3523 19.6151ZM10.5584 19.6759C10.7853 19.6759 11.0813 19.6835 11.3523 19.6151L10.8627 17.6759C10.895 17.6678 10.9044 17.6707 10.851 17.6731C10.7915 17.6757 10.7099 17.6759 10.5584 17.6759V19.6759ZM9.44171 19.6759H10.5584V17.6759H9.44171V19.6759ZM8.64793 19.6151C8.91889 19.6835 9.21479 19.6759 9.44171 19.6759V17.6759C9.2902 17.6759 9.20862 17.6757 9.14918 17.6731C9.09572 17.6707 9.10512 17.6678 9.13746 17.6759L8.64793 19.6151ZM7.25664 18.356C7.48252 18.9807 8.00384 19.4525 8.64792 19.6151L9.13747 17.6759L9.13747 17.6759L7.25664 18.356ZM7.11712 17.5722C7.1397 17.798 7.16162 18.0932 7.25664 18.356L9.13747 17.6759C9.14881 17.7073 9.14678 17.717 9.13913 17.664C9.13061 17.6051 9.12227 17.524 9.1072 17.3732L7.11712 17.5722ZM7.11561 17.5557L7.11561 17.5558L9.1087 17.3897L9.1087 17.3897L7.11561 17.5557ZM7.05476 16.9486C7.02388 16.8866 7.03303 16.8682 7.05296 16.9987C7.07175 17.1218 7.08916 17.2926 7.11712 17.5722L9.10719 17.3732C9.08142 17.1155 9.05853 16.8833 9.03003 16.6967C9.00266 16.5175 8.95751 16.2828 8.84489 16.0567L7.05476 16.9486ZM7.05476 16.9486L7.05476 16.9486L8.84489 16.0567C8.40008 15.1639 7.36543 14.7354 6.41959 15.0522L7.05476 16.9486ZM6.56968 17.3455C6.78717 17.1676 6.9203 17.059 7.02061 16.9853C7.12697 16.9071 7.12043 16.9266 7.05476 16.9486L6.41959 15.0522C6.18012 15.1324 5.9822 15.2664 5.83613 15.3738C5.68401 15.4856 5.50367 15.6336 5.3032 15.7976L6.56968 17.3455ZM6.64354 17.2787L6.64355 17.2786L5.22933 15.8644L5.22933 15.8644L6.64354 17.2787ZM6.58722 17.3308L6.58723 17.3308L5.28564 15.8123L5.28563 15.8123L6.58722 17.3308ZM5.91666 17.8012C6.16973 17.6825 6.39401 17.4892 6.56966 17.3455L5.30319 15.7976C5.18591 15.8936 5.12261 15.945 5.07494 15.9807C5.03206 16.0127 5.03745 16.0045 5.06767 15.9903L5.91666 17.8012ZM4.0427 17.7077C4.61307 18.0481 5.31524 18.0831 5.91666 17.8012L5.06767 15.9903L5.06766 15.9903L4.0427 17.7077ZM3.43829 17.1893C3.59877 17.3498 3.80269 17.5644 4.04269 17.7077L5.06767 15.9903C5.09632 16.0074 5.10086 16.0162 5.06139 15.98C5.0175 15.9398 4.95965 15.8823 4.8525 15.7751L3.43829 17.1893ZM2.64871 16.3998L3.43829 17.1893L4.8525 15.7751L4.06293 14.9856L2.64871 16.3998ZM2.13036 15.7953C2.2736 16.0354 2.48823 16.2393 2.64871 16.3998L4.06293 14.9856C3.95578 14.8784 3.89824 14.8206 3.85805 14.7767C3.8219 14.7372 3.83066 14.7417 3.84776 14.7704L2.13036 15.7953ZM2.0369 13.9214C1.75494 14.5228 1.78996 15.225 2.13036 15.7953L3.84776 14.7704L3.84776 14.7704L2.0369 13.9214ZM2.49255 13.2684C2.34883 13.444 2.15555 13.6683 2.0369 13.9214L3.84776 14.7704C3.83359 14.8006 3.82533 14.806 3.85738 14.7631C3.89301 14.7154 3.9445 14.6521 4.04047 14.5349L2.49255 13.2684ZM2.88945 12.7833C2.91145 12.7176 2.93093 12.7111 2.85275 12.8174C2.77902 12.9177 2.67051 13.0509 2.49255 13.2684L4.04047 14.5349C4.20449 14.3344 4.35246 14.154 4.46428 14.0019C4.57164 13.8558 4.70572 13.6579 4.78592 13.4184L2.88945 12.7833ZM2.88945 12.7833L2.88945 12.7833L4.78592 13.4184C5.10268 12.4726 4.67413 11.438 3.78134 10.9932L2.88945 12.7833ZM2.26585 12.7209C2.54546 12.7489 2.71631 12.7663 2.83936 12.7851C2.96983 12.805 2.95144 12.8142 2.88945 12.7833L3.78135 10.9932C3.5553 10.8805 3.32055 10.8354 3.14135 10.808C2.95472 10.7795 2.72258 10.7566 2.46486 10.7308L2.26585 12.7209ZM2.36535 12.7259H2.36536V10.7259H2.36535V12.7259ZM1.48203 12.5814C1.74484 12.6764 2.04004 12.6983 2.26584 12.7209L2.46485 10.7308C2.31409 10.7158 2.23294 10.7074 2.17405 10.6989C2.12108 10.6913 2.13073 10.6892 2.16211 10.7006L1.48203 12.5814ZM0.222952 11.1901C0.385554 11.8342 0.857332 12.3555 1.48203 12.5814L2.16211 10.7006L2.16211 10.7006L0.222952 11.1901ZM0.162109 10.3963C0.162109 10.6232 0.154543 10.9192 0.222952 11.1901L2.16211 10.7006C2.17028 10.7329 2.1673 10.7423 2.16495 10.6889C2.16233 10.6294 2.16211 10.5478 2.16211 10.3963H0.162109ZM0.162109 9.2796V10.3963H2.16211V9.2796H0.162109ZM0.222947 8.48582C0.154544 8.75678 0.162109 9.05268 0.162109 9.2796H2.16211C2.16211 9.12809 2.16233 9.04651 2.16495 8.98707C2.1673 8.93361 2.17028 8.94301 2.16211 8.97536L0.222947 8.48582ZM1.48205 7.09453C0.857335 7.32041 0.385546 7.84173 0.222947 8.48582L2.16211 8.97536L2.16211 8.97536L1.48205 7.09453ZM2.26582 6.95501C2.04004 6.97759 1.74485 6.9995 1.48204 7.09453L2.16211 8.97536C2.13074 8.9867 2.12108 8.98467 2.17405 8.97701C2.23293 8.9685 2.31408 8.96016 2.46483 8.94509L2.26582 6.95501ZM2.25785 6.95584L2.25784 6.95584L2.4728 8.94426L2.47282 8.94425L2.25785 6.95584ZM2.88942 6.89265C2.95141 6.86177 2.9698 6.87092 2.83933 6.89085C2.71628 6.90964 2.54543 6.92705 2.26583 6.95501L2.46484 8.94508C2.72255 8.91931 2.95469 8.89642 3.1413 8.86792C3.3205 8.84055 3.55525 8.7954 3.78128 8.68278L2.88942 6.89265ZM2.88942 6.89265L2.88942 6.89265L3.78128 8.68278C4.67409 8.23798 5.10266 7.20332 4.78588 6.25748L2.88942 6.89265ZM2.49245 6.40746C2.67042 6.62499 2.77896 6.75815 2.8527 6.85848C2.9309 6.96487 2.91142 6.95834 2.88942 6.89265L4.78588 6.25748C4.70567 6.018 4.57158 5.82006 4.46422 5.67399C4.3524 5.52186 4.20441 5.34149 4.04036 5.14099L2.49245 6.40746ZM2.03664 5.7542C2.15531 6.00736 2.34866 6.23173 2.49245 6.40747L4.04036 5.14099C3.94436 5.02365 3.89284 4.96032 3.85719 4.91263C3.82512 4.86971 3.83339 4.87511 3.84756 4.90534L2.03664 5.7542ZM2.13009 3.8805C1.78978 4.45081 1.75476 5.15286 2.03664 5.7542L3.84756 4.90534L3.84756 4.90534L2.13009 3.8805ZM2.64857 3.2759C2.48805 3.43642 2.27336 3.6404 2.13009 3.8805L3.84756 4.90534C3.83046 4.934 3.8217 4.93855 3.85786 4.89906C3.89806 4.85516 3.95561 4.79729 4.06279 4.69011L2.64857 3.2759ZM3.43803 2.48644L2.64857 3.2759L4.06279 4.69011L4.85224 3.90066L3.43803 2.48644ZM4.04262 1.96797C3.80253 2.11123 3.59855 2.32592 3.43803 2.48644L4.85224 3.90066C4.95942 3.79348 5.01729 3.73593 5.06119 3.69573C5.10067 3.65957 5.09613 3.66833 5.06747 3.68543L4.04262 1.96797ZM5.91634 1.87452C5.31499 1.59263 4.61293 1.62765 4.04262 1.96797L5.06747 3.68543L5.06747 3.68543L5.91634 1.87452ZM6.56959 2.33032C6.39385 2.18654 6.16949 1.99318 5.91634 1.87452L5.06747 3.68543C5.03723 3.67126 5.03184 3.66299 5.07475 3.69506C5.12245 3.73071 5.18578 3.78223 5.30311 3.87823L6.56959 2.33032ZM7.05477 2.72728C7.12045 2.74928 7.12698 2.76876 7.02059 2.69056C6.92026 2.61682 6.78711 2.50829 6.56959 2.33032L5.30311 3.87823C5.50361 4.04228 5.68397 4.19026 5.8361 4.30208C5.98216 4.40944 6.1801 4.54352 6.41957 4.62373L7.05477 2.72728ZM7.05476 2.72728L7.05476 2.72728L6.41957 4.62373C7.36542 4.94053 8.4001 4.51195 8.84491 3.61913L7.05476 2.72728ZM7.11712 2.10371C7.08916 2.3833 7.07176 2.55414 7.05296 2.67719C7.03303 2.80766 7.02388 2.78926 7.05477 2.72728L8.84491 3.61913C8.95752 3.39309 9.00266 3.15835 9.03003 2.97916C9.05854 2.79255 9.08143 2.56042 9.1072 2.30272L7.11712 2.10371ZM7.11795 2.09572L7.11795 2.09574L9.10637 2.3107L9.10637 2.31069L7.11795 2.09572ZM7.25664 1.31995C7.16161 1.58275 7.1397 1.87793 7.11712 2.1037L9.1072 2.30271C9.12227 2.15196 9.13061 2.07082 9.13912 2.01194C9.14678 1.95898 9.14881 1.96863 9.13747 2L7.25664 1.31995ZM8.64794 0.060834C8.00384 0.223431 7.48252 0.695228 7.25664 1.31995L9.13747 2L9.13747 2L8.64794 0.060834ZM9.4417 0C9.21479 0 8.91889 -0.00756533 8.64794 0.0608339L9.13747 2C9.10512 2.00817 9.09572 2.00519 9.14918 2.00284C9.20862 2.00022 9.2902 2 9.4417 2V0ZM10.5584 0H9.4417V2H10.5584V0ZM11.3523 0.0608463C11.0813 -0.00756685 10.7853 0 10.5584 0V2C10.7099 2 10.7915 2.00022 10.851 2.00284C10.9044 2.00519 10.895 2.00817 10.8627 2L11.3523 0.0608463ZM12.7435 1.3199C12.5176 0.695219 11.9963 0.223451 11.3523 0.0608464L10.8627 2L10.8627 2L12.7435 1.3199ZM12.5353 9.83796C12.5353 11.2381 11.4002 12.3731 10.0001 12.3731V14.3731C12.5048 14.3731 14.5353 12.3427 14.5353 9.83796H12.5353ZM10.0001 7.30278C11.4002 7.30278 12.5353 8.43782 12.5353 9.83796H14.5353C14.5353 7.33325 12.5048 5.30278 10.0001 5.30278V7.30278ZM7.46489 9.83796C7.46489 8.43782 8.59993 7.30278 10.0001 7.30278V5.30278C7.49536 5.30278 5.46489 7.33325 5.46489 9.83796H7.46489ZM10.0001 12.3731C8.59993 12.3731 7.46489 11.2381 7.46489 9.83796H5.46489C5.46489 12.3427 7.49536 14.3731 10.0001 14.3731V12.3731Z" fill="#4C4E4D"/>
</svg>
