<svg width="18" height="18" viewBox="0 0 18 18" fill="none" xmlns="http://www.w3.org/2000/svg">
<path fill-rule="evenodd" clip-rule="evenodd" d="M10.8033 0.659752C10.8456 0.776722 10.8598 0.918985 10.8883 1.20351V1.20352C10.942 1.74132 10.9689 2.01022 11.0508 2.1744C11.2732 2.6205 11.7903 2.83466 12.263 2.6765C12.437 2.6183 12.6461 2.44717 13.0644 2.10492L13.0644 2.10492C13.2857 1.92385 13.3964 1.83332 13.509 1.78054C13.8096 1.63966 14.1606 1.65717 14.4457 1.82725C14.5525 1.89098 14.6536 1.99207 14.8558 2.19425L14.8558 2.19426L15.6456 2.98409C15.8478 3.18628 15.9489 3.28738 16.0126 3.39421C16.1827 3.67931 16.2002 4.03024 16.0593 4.33085C16.0066 4.44349 15.916 4.55415 15.735 4.77546C15.3927 5.19378 15.2216 5.40294 15.1634 5.57693C15.0052 6.04965 15.2194 6.56666 15.6655 6.7891C15.8296 6.87097 16.0985 6.89786 16.6364 6.95165C16.9209 6.9801 17.0632 6.99433 17.1802 7.03666C17.4923 7.14961 17.7281 7.41012 17.8094 7.73198C17.8399 7.85259 17.8399 7.99557 17.8399 8.28153V9.39858C17.8399 9.68444 17.8399 9.82737 17.8095 9.94793C17.7281 10.2699 17.4923 10.5304 17.1801 10.6434C17.0632 10.6857 16.9209 10.6999 16.6365 10.7283L16.6364 10.7283C16.0989 10.7821 15.8301 10.809 15.6659 10.8908C15.2197 11.1132 15.0055 11.6304 15.1637 12.1032C15.2219 12.2771 15.393 12.4861 15.7351 12.9043L15.7351 12.9043C15.9161 13.1255 16.0066 13.2361 16.0593 13.3486C16.2003 13.6493 16.1828 14.0003 16.0126 14.2855C15.9489 14.3923 15.8479 14.4933 15.6458 14.6954L14.8558 15.4853C14.6536 15.6875 14.5525 15.7886 14.4457 15.8524C14.1606 16.0224 13.8097 16.0399 13.5091 15.8991C13.3964 15.8463 13.2858 15.7558 13.0645 15.5747L13.0645 15.5747C12.6462 15.2324 12.437 15.0613 12.263 15.0031C11.7903 14.8449 11.2733 15.0591 11.0508 15.5052C10.969 15.6694 10.9421 15.9383 10.8883 16.4763L10.8883 16.4763C10.8598 16.761 10.8456 16.9033 10.8032 17.0203C10.6903 17.3324 10.4298 17.5681 10.108 17.6495C9.98737 17.68 9.84434 17.68 9.55827 17.68H8.44144C8.15548 17.68 8.0125 17.68 7.89189 17.6495C7.57004 17.5682 7.30953 17.3324 7.19657 17.0203C7.15424 16.9033 7.14001 16.761 7.11156 16.4765C7.05778 15.9386 7.03088 15.6697 6.94901 15.5055C6.72657 15.0594 6.20957 14.8453 5.73685 15.0034C5.56287 15.0616 5.3537 15.2328 4.93537 15.5751L4.93535 15.5751C4.71402 15.7562 4.60336 15.8467 4.49071 15.8995C4.19011 16.0403 3.83919 16.0228 3.5541 15.8528C3.44726 15.789 3.34616 15.6879 3.14396 15.4857L3.14395 15.4857L2.35415 14.6959C2.15195 14.4937 2.05085 14.3926 1.98712 14.2858C1.81704 14.0007 1.79954 13.6498 1.9404 13.3492C1.99319 13.2365 2.08373 13.1259 2.26481 12.9045C2.60707 12.4862 2.7782 12.2771 2.83641 12.1031C2.99456 11.6303 2.78041 11.1133 2.33431 10.8909C2.17013 10.809 1.90122 10.7821 1.36342 10.7283C1.0789 10.6999 0.936635 10.6857 0.819666 10.6433C0.507488 10.5304 0.27172 10.2699 0.190387 9.948C0.159912 9.8274 0.159912 9.68443 0.159912 9.39849V8.28161C0.159912 7.99557 0.159912 7.85255 0.190409 7.73191C0.271755 7.41011 0.507474 7.14964 0.819582 7.03668C0.93659 6.99433 1.0789 6.9801 1.36353 6.95164C1.90153 6.89784 2.17053 6.87094 2.33476 6.78902C2.78074 6.56657 2.99485 6.04967 2.83679 5.57702C2.77858 5.40297 2.60738 5.19371 2.26496 4.77521L2.26496 4.77521C2.08378 4.55376 1.99319 4.44304 1.94039 4.33034C1.7996 4.02979 1.8171 3.67897 1.9871 3.39392C2.05085 3.28703 2.152 3.18588 2.3543 2.98358L3.14399 2.19388L3.14399 2.19388C3.3462 1.99168 3.4473 1.89057 3.55414 1.82684C3.83923 1.65677 4.19015 1.63927 4.49075 1.78013C4.6034 1.83291 4.71408 1.92347 4.93545 2.10459C5.35371 2.4468 5.56284 2.61791 5.73675 2.67612C6.20955 2.83437 6.72669 2.62016 6.94912 2.17394C7.03093 2.00981 7.05781 1.741 7.11157 1.2034V1.20339V1.20339C7.14001 0.918975 7.15424 0.776767 7.19653 0.659838C7.30948 0.34759 7.57006 0.111773 7.892 0.0304526C8.01255 0 8.15547 0 8.44131 0H9.5584C9.84435 0 9.98732 0 10.1079 0.0304751C10.4298 0.111809 10.6903 0.347575 10.8033 0.659752ZM8.99991 12.376C10.9528 12.376 12.5359 10.7929 12.5359 8.84C12.5359 6.88712 10.9528 5.304 8.99991 5.304C7.04703 5.304 5.46391 6.88712 5.46391 8.84C5.46391 10.7929 7.04703 12.376 8.99991 12.376Z" fill="#4C4E4D"/>
</svg>
